<svg width="59" height="61" viewBox="0 0 59 61" fill="none" xmlns="http://www.w3.org/2000/svg">
<g clip-path="url(#clip0_131_54023)">
<path d="M31.3915 49.0767C43.456 49.0767 53.2361 39.2966 53.2361 27.2321C53.2361 15.1677 43.456 5.38748 31.3915 5.38748C19.327 5.38748 9.54688 15.1677 9.54688 27.2321C9.54688 39.2966 19.327 49.0767 31.3915 49.0767Z" fill="#FFCB05"/>
<path d="M34.5679 6.48459L32.9304 0.0818577C32.4228 0.0818577 31.9151 0.0818577 31.3911 0.0818577C30.8671 0.0818577 30.2449 0.0818577 29.7536 0.0818577L28.46 6.63197L34.5679 6.48459Z" fill="#FFCB05"/>
<path d="M28.3779 47.7831L29.6716 54.3332C30.2447 54.3332 30.8178 54.3332 31.3091 54.3332C31.8004 54.3332 32.3408 54.3332 32.8484 54.3332L34.4859 47.9304L28.3779 47.7831Z" fill="#FFCB05"/>
<path d="M25.218 7.15601L20.9441 2.0633C19.9442 2.48414 18.9708 2.96537 18.0293 3.50432L19.6668 10.0544L25.218 7.15601Z" fill="#FFCB05"/>
<path d="M37.5977 47.0458L41.5932 52.4332C42.6029 52.0292 43.5873 51.5644 44.5408 51.0413L43.2144 44.4912L37.5977 47.0458Z" fill="#FFCB05"/>
<path d="M17.1609 11.8062L11.1348 9.08789C10.3944 9.8912 9.71049 10.7448 9.08789 11.6424L13.4437 16.7515L17.1609 11.8062Z" fill="#FFCB05"/>
<path d="M45.5889 42.3301L51.5331 45.425C52.27 44.6202 52.959 43.7726 53.5964 42.8869L49.5844 37.614L45.5889 42.3301Z" fill="#FFCB05"/>
<path d="M11.8724 19.5194L5.3223 19.6831C5.02019 20.726 4.785 21.7871 4.61816 22.8599L10.7425 25.5782L11.8724 19.5194Z" fill="#FFCB05"/>
<path d="M52.3192 28.7383L50.6816 34.7316L57.4119 34.9445C57.7194 33.902 57.96 32.8409 58.1324 31.7677L52.3192 28.7383Z" fill="#FFCB05"/>
<path d="M10.4801 28.7383L4.58496 31.7677C4.75966 32.8391 4.99475 33.8997 5.2891 34.9445L12.0193 34.7316L10.4801 28.7383Z" fill="#FFCB05"/>
<path d="M52.1057 25.5782L58.2301 22.8599C58.0687 21.7874 57.839 20.7263 57.5423 19.6831L50.9922 19.5194L52.1057 25.5782Z" fill="#FFCB05"/>
<path d="M13.1987 37.6795L9.20312 42.9524C9.83 43.8417 10.5137 44.6895 11.25 45.4906L17.1943 42.3301L13.1987 37.6795Z" fill="#FFCB05"/>
<path d="M49.3549 16.7515L53.6943 11.6424C53.0722 10.7488 52.394 9.8956 51.6638 9.08789L45.6377 11.8062L49.3549 16.7515Z" fill="#FFCB05"/>
<path d="M19.5356 44.5244L18.2256 51.0745C19.1719 51.6006 20.151 52.0655 21.1568 52.4664L25.2178 47.0462L19.5356 44.5244Z" fill="#FFCB05"/>
<path d="M43.0346 10.0058L44.6721 3.45567C43.7306 2.91672 42.7572 2.43549 41.7573 2.01465L37.4834 7.10736L43.0346 10.0058Z" fill="#FFCB05"/>
<path d="M31.3912 45.425C41.4389 45.425 49.5841 37.2798 49.5841 27.2321C49.5841 17.1844 41.4389 9.03914 31.3912 9.03914C21.3435 9.03914 13.1982 17.1844 13.1982 27.2321C13.1982 37.2798 21.3435 45.425 31.3912 45.425Z" fill="white"/>
<mask id="mask0_131_54023" style="mask-type:luminance" maskUnits="userSpaceOnUse" x="13" y="9" width="37" height="37">
<path d="M31.3922 45.4083C41.4398 45.4083 49.5851 37.2631 49.5851 27.2154C49.5851 17.1677 41.4398 9.02246 31.3922 9.02246C21.3445 9.02246 13.1992 17.1677 13.1992 27.2154C13.1992 37.2631 21.3445 45.4083 31.3922 45.4083Z" fill="white"/>
</mask>
<g mask="url(#mask0_131_54023)">
<path d="M20.4372 26.8877H15.541V46.3088H20.4372V26.8877Z" fill="#1E552A"/>
<path d="M32.4238 28.5741H25.9229V46.2921H32.4238V28.5741Z" fill="#1E552A"/>
<path d="M47.2764 31.2764H42.7568V46.2925H47.2764V31.2764Z" fill="#1E552A"/>
<path d="M30.967 21.4512H27.3809V46.3089H30.967V21.4512Z" fill="#1E552A"/>
<path d="M37.0906 20.3213H33.2588V46.2925H37.0906V20.3213Z" fill="#1E552A"/>
<path d="M35.4372 13.5088H34.7822V46.2921H35.4372V13.5088Z" fill="#1E552A"/>
<path d="M25.0553 17.1769H21.8457V46.3085H25.0553V17.1769Z" fill="#1E552A"/>
<path d="M41.0208 27.0352H38.499V46.3089H41.0208V27.0352Z" fill="#1E552A"/>
<path d="M39.1702 36.3524H36.6484V46.2922H39.1702V36.3524Z" fill="#1E552A"/>
<path d="M47.9803 38.792H13.1992V48.6172H47.9803V38.792Z" fill="#1E552A"/>
</g>
<path d="M22.5651 58.0508H21.5335C17.2268 58.0508 2.94756 55.8729 0.60589 27.9858L0 20.8789L4.91259 26.0371C6.69749 27.8875 10.6112 29.4923 14.4103 31.0316C18.5862 32.4945 22.5295 34.5516 26.1186 37.1396C27.5304 38.3095 28.6853 39.7585 29.5109 41.3956C30.3365 43.0328 30.8151 44.8229 30.9165 46.6536C30.9978 48.3333 30.7232 50.0112 30.1109 51.5774C29.4985 53.1436 28.5621 54.5628 27.3631 55.7419L22.1394 60.9656L22.5651 58.0508Z" fill="white"/>
<path d="M3.14453 27.8057C7.36935 32.1779 18.6683 34.2575 24.5798 39.0555C25.6813 39.921 26.5895 41.0075 27.2459 42.245C27.9023 43.4826 28.2924 44.8439 28.3912 46.2413C28.4899 47.6387 28.295 49.0413 27.8191 50.3588C27.3432 51.6764 26.5967 52.8797 25.6278 53.8915C27.0852 42.0849 12.6586 38.0566 9.44901 36.0752C9.64552 37.9583 24.8254 42.5434 24.1868 55.0705C23.4826 55.7583 5.76458 59.0825 3.14453 27.8057Z" fill="#1E552A"/>
</g>
<defs>
<clipPath id="clip0_131_54023">
<rect width="58.2305" height="60.9652" fill="white"/>
</clipPath>
</defs>
</svg>
