<?xml version="1.0" encoding="utf-8"?>
<!-- Generator: Adobe Illustrator 26.0.3, SVG Export Plug-In . SVG Version: 6.00 Build 0)  -->
<svg version="1.1" id="Layer_1" xmlns="http://www.w3.org/2000/svg" xmlns:xlink="http://www.w3.org/1999/xlink" x="0px" y="0px"
	 viewBox="0 0 1016 1016" style="enable-background:new 0 0 1016 1016;" xml:space="preserve">
<style type="text/css">
	.st0{fill:#FFFFFF;}
</style>
<path d="M541.26,519.26c-0.01,0.02-0.01,0.04,0,0.05l-0.04-0.02L541.26,519.26z"/>
<g>
	<g>
		<path d="M326.28,469.88c5.61,2.44,11.23-4.2,10.91-10.37c-0.36-7.06-6.79-8.01-11.04-3.94c-2.82,2.7-3.12,7.79-2.63,10.27
			C323.84,467.5,324.72,469.2,326.28,469.88z"/>
		<path d="M532.4,501.49c-0.42-1.2-0.77-2.42-1.22-3.6c-0.14-0.37-0.25-0.81-0.48-1.04c-0.16-0.16-0.38-0.23-0.73-0.11
			c-0.46,0.15-0.95,0.74-1.13,1.19c-1.33,3.08-2.97,6.01-4.82,8.8c-1.25,1.87-2.46,3.77-3.9,5.51c-1.21,1.44-3.1,3.8-5.24,2.78
			c-1.68-0.8-2.56-2.96-3.08-4.63c-1.25-4.02-0.64-8.99-0.59-13.12c0.04-5.63,1.1-12.23-1.52-17.46c-2.19-4.38-6.98-5.37-11.46-4.58
			c-3.82,0.65-6.41,3.74-7.93,7.1c-2.02,4.52-4.08,8.8-7.03,12.8c-0.42,0.56-0.97,1.16-1.67,1.13c-0.03-0.62,0.1-1.22,0.25-1.82
			c0.87-3.29,1.91-6.57,3.04-9.75c0.68-1.9,0.68-4.03-0.27-5.82c-1.98-3.67-6.18-3.66-9.88-3.52c-7.07,0.27-5.3,19.7-6.92,23.35
			c-1.63,3.67-14.68,15.89-24.16,16.83c-7.81,0.8-10.41-8.78-9.79-12.88c0.14-0.98,1.12-1.62,2.07-1.34
			c11.96,3.37,19.61-5.64,22.11-10.75c2.58-5.3-1.9-12.63-7.07-14.67c-5.15-2.04-19-1.45-24.7,14.12
			c-5,13.63-6.79,14.13-12.76,15.81c-5.99,1.69-29.87-6.58-24.45-9.57c6.32-3.37,12.24-7.57,17.17-12.79
			c2.76-2.9,5.23-6.08,7.29-9.51c0.97-1.6,2.04-3.34,2.6-5.14c0.57-1.85,0.33-3.75-0.07-5.64c-0.25-1.15-0.49-2.32-0.75-3.48
			l-0.18-0.86l-0.9,0.93c0,0-3.6,3.77-3.65,3.81c-1.68,1.73-2.78,3.9-3.98,5.97c-2.21,3.85-5.38,7.08-8.62,10.09
			c-2.07,1.91-4.24,3.79-6.6,5.34c-0.56,0.37-2.91,2.12-3.59,1.2c-0.11-0.13-0.11-0.34-0.1-0.51c0.27-3.8,13.58-59.46,14.13-65.44
			c0.55-5.99-3-9.52-9.51-8.97c-6.52,0.54-6.52,7.33-7.33,8.14c-0.82,0.82-9.59,60.46-10.68,66.99c-0.45,2.7-1.29,5.15-2.67,7.52
			c-1.36,2.33-3,4.58-1.67,7.35c0.58,1.22,1.48,2.25,2.22,3.38c3.33,5.1-0.69,11.21-2.96,17.41c-0.84,2.3-9.49,22.81-11.67,0
			c-2.18-22.81,1.76-51.28,4.07-61.63c2.74-12.35,7.59-29.34,8.15-31.23c0.53-1.91-0.8-5.7-5.7-7.34
			c-4.89-1.62-9.74,0.14-11.41,4.36c-2.26,5.7-7.43,61.26-7.43,65.61c0,4.34,1.46,13.4-9.77,22.45
			c-11.23,9.04-11.59-1.09-11.94-8.45c-0.37-7.35,4.71-16.9,6.15-21.6c1.45-4.7-4.35-7.24-9.78-7.62
			c-5.44-0.35-5.44,11.59-6.15,16.31c-0.73,4.7-4.07,3.07-27.87,5.43c-36.41,3.62-45.27,16.16-49.65,13.9
			c-14.08-7.27-18.31-8.72-27.21-12.03c-14.52-5.42-29.43-10.38-43.8-16.29c-22.59-9.3-51.67-28.68-37.36-56.94
			c13.19-26.08,53.12-49.5,81.73-62.24c11.42-5.08,23.7-8.04,36.19-8.57c77.34-3.19,38.62,63.61,38.62,63.61
			c-2.4,5.02,0.54,8.55,3.45,10.65c3.05,2.19,7.1,2.6,10.4,0.82c10.93-5.88,15.31-27.28,15.31-27.33
			c3.89-19.04,0.68-41.34-15.48-53.96c-15.75-12.32-38.27-12.82-57.28-11.24c-30.81,2.56-58.7,15.25-83.75,32.86
			c-23.89,16.79-52.89,43.2-50.66,75.25c2.99,43.18,76.49,62.07,76.49,62.07s41.34,12.3,39.05,13.15
			c-11.68,4.35-29.83,19.91-29.83,19.91s-37.66,29.88-55.38,72.59c-4.92,11.86-8.09,27.19,1.33,37.72
			c10.08,11.26,28.92,12.9,42.84,10.4c12.77-2.27,24.68-8.03,35.81-14.69c30.67-18.36,74.47-56.02,62.83-96.59
			c-2.09-7.29-5.96-13.98-11.27-19.37c-2.85-2.88-6.08-5.35-9.54-7.44c-1.21-0.71-10.63-5.57-7.08-7.24
			c17.8-11.85,59.09-13.08,61.25-13.2c2.16-0.14,1.49,19.55,14.38,20.35c12.91,0.82,16.98-12.89,18.75-13.58
			c1.77-0.67,1.35,30.43,12.48,32.05c11.13,1.63,13.57-10.58,15.47-14.94c1.59-3.6,2.23-2.33,3.19,2.89
			c0.11,0.62,0.23,1.27,0.35,1.99l0.16,0.15c0.79,1.41,2.55,2.29,3.92,3c0.92,0.47,1.87,0.9,2.82,1.31
			c0.91,0.37,1.89,0.87,2.86,1.09c0.13-0.31,0.03-0.79,0.02-1.13c0,0-0.36-16.25-0.36-16.27c-0.23-1.13-0.44-2.27-0.66-3.41
			c-0.32-1.77-0.67-3.55-0.85-5.33c-0.02-0.29-0.04-0.56-0.04-0.84c-0.14-4.76,6.4-1.22,11.69,0.4c0.01,0.01,0.03,0.01,0.05,0.02
			c18.27,7.83,24.64-3.55,25.45-1.65c0.82,3.1,4.33,7.74,8.53,11.02c3.35,2.63,7.6,3.84,11.86,3.51
			c16.85-1.24,21.63-14.37,24.83-16.83c1.71-1.32,1.48,2.24,1.63,6.35h-0.01c0,0,0,0.08,0.01,0.23c0,0.01,0,0.01,0,0.02
			c0,0.11,0.01,0.24,0.02,0.38c0.02,0.26,0.04,0.59,0.09,0.97c0,0,1.02,6.18,4.15,8.53c0,0,3.89-1.55,6.78-5.38
			c0.03-0.04,0.07-0.08,0.09-0.12c0.25-0.37,0.51-0.77,0.77-1.18c0.12-0.16,0.22-0.33,0.31-0.49c0.54-0.89,1.09-1.84,1.63-2.83
			c4.23-7.79,8.48-18.47,12.78-24.81c7.47-11,5.27,3.13,5.83,6.66c0.55,3.53,0,27.71,12.08,27.02c7.29-0.42,12.72-7.05,16.26-12.8
			c1.01-1.65,1.88-3.4,2.45-5.25C533.07,503.93,532.83,502.75,532.4,501.49z M438.85,492.56c0.71-2.46,2.9-7.68,8.31-7.09
			c2.13,0.22,2.27,2.21,1.53,3.83c-1.58,3.45-5.56,3.9-8.89,4.35C439.17,493.74,438.68,493.15,438.85,492.56z M259.38,547.14
			c1.97,2.27,3.36,4.77,4.3,7.36c3.52,9.97,0.62,22.36-4.79,30.93c-17.26,27.39-29.78,41.36-73.4,60.31
			c-5.68,2.48-15.38,4.34-21.56,3.92c-35.33-2.42-10.59-44.17-1.52-59c22.17-36.19,60.93-59.09,68.28-63.25
			c0.8-0.44,1.88,0,2.68,0.43C242.94,533,252.18,538.85,259.38,547.14z"/>
	</g>
	<path d="M909.07,498.94c-0.03-0.16-0.63-2.32-0.56-2.35c-0.76,0.34-1.51,0.68-2.26,1.02c-0.76,0.34-1.6,0.57-2.29,1.07
		c-0.85,0.62-1.27,1.69-1.77,2.58c-0.59,1.05-1.19,2.11-1.8,3.15c-1.22,2.04-2.56,4.03-4.2,5.77c-2.24,2.38-5.09,4.2-8.4,4.54
		c-10.58,1.08-6.78-15.18-4.07-18.52c2.71-3.35,6.66-9.72,5.15-13.12c-1.31-3.01-2.21-8.04-7.11-8.4c-1.1-0.09-2.16,0.32-2.99,1.03
		c-0.88,0.76-2.37,1.67-4.29,1.25c-3.53-0.75-6.16-2.82-10-2.09c-5.74,1.09-9.92,6.42-13.14,10.89c-3.6,4.99-5.76,10.67-6.13,16.81
		c-0.07,0.99-0.3,1.94-0.79,2.81c-2.32,4.19-9.46,13.33-11.09,9.32c-1.33-3.36,0.13-8,0.97-11.32c0.47-1.93,1.03-3.86,1.56-5.79
		c0.54-1.97,1.3-4.01-0.33-5.71c-0.84-0.86-2.02-1.34-3.22-1.41c-1.4-0.09-2.79,0.33-4,1.01c-4.75,2.71-11.53,4.2-9.23,1.76
		c2.32-2.44,8.56-6.24,8.56-13.7c0-7.46-8.56-11.68-14.93-7.46c-6.38,4.2-10.05,15.88-4.62,23.22c5.42,7.32-13.3,25.37-16.7,20.61
		c-3.4-4.74-5.56-15.05,1.48-28.91c4.09-8.81-7.19-14.54-11.26-8.56c-4.07,5.99-6.86,35.86-15.2,33.78
		c-8.67-2.15-2.04-12.89-1.22-14.9c0.87-2.13,7.45-8.97,5.29-15.47c-2.16-6.53-12.35-9.91-15.75-3.41
		c-2.56,4.92-3.35,11.63-3.58,14.61c-0.07,0.87-0.79,1.55-1.67,1.55h-13.52c-0.89,0-1.64-0.7-1.67-1.6
		c-0.47-11.5-3.45-81.68-6.76-102.76c-3.63-22.99-10.33-66.79-37.47-48.68c-25.8,17.19-65.65,140.1-69.57,152.37
		c-0.2,0.6-0.7,1.04-1.33,1.13c-5.93,0.88-36.36,5.67-57.54,14.38c-0.05,0.01-0.1,0.03-0.15,0.07c-1.71,0.69-3.36,1.43-4.93,2.19
		c-1.19,0.57-2.4,1.21-3.56,1.86c-0.57,0.32-1.15,0.69-1.72,1.08l-0.64,0.32c-0.51,0.25-0.97,0.59-1.37,0.99l-0.1,0.1l-4.24,4.2
		l-0.11,0.12c-0.01,0.02-0.01,0.04,0,0.05v0.01l4.12,2.32c0.25,0.14,0.54,0.22,0.84,0.22c1.55,0,6.93,0,10.93-0.01
		c1.47-0.03,2.93-0.04,4.4-0.03c0.86,0.01,1.7,0.02,2.56,0.03c9.11,0.13,18.21,0.66,27.23,1.78c1.64,0.21,13.25,1.29,12.14,4.24
		c-5.68,15.15-12.44,30.13-18.46,45.2c-6.21,15.49-13.11,30.71-20.7,45.57c-4.2,8.22-7.96,16.68-12.75,24.56
		c-1.85,3.01-4.01,6.49-6.56,9.66c-0.01,0.01-0.01,0.02-0.03,0.03c-0.03,0.03-0.05,0.08-0.09,0.11c-0.03,0.03-0.08,0.09-0.12,0.14
		c-0.11,0.14-0.22,0.29-0.34,0.43c-0.07,0.05-0.13,0.13-0.2,0.22c-0.14,0.16-0.3,0.35-0.47,0.57c-2.88,3.45-10.07,11.89-13.33,13.92
		c-0.34,0.21-0.58,0.53-0.7,0.9l-0.76,2.35l-1.77,5.57c-0.08,0.21,0.07,0.41,0.29,0.42c1.75,0.02,8.54,0.15,9.77-0.01
		c1.43-0.19,11.49-9.45,17.5-19.44c4.2-6.34,7.9-13.04,11.51-19.69c9.85-18.15,17.83-37.23,25.46-56.38
		c2.6-6.55,5.16-13.11,7.75-19.66c0.92-2.35,10.92-31.77,13.38-31.35c1.63,0.27,16.37,6.87,23.35,10.96
		c6.98,4.07,41.54,19.71,70.32,48.78c3,2.98,13.86,12.09,16.83,18.6c2.49,5.45,3.07,11.67,6.53,16.69
		c4.75,6.88,14.19,16.59,23.49,15c4.73-0.81,9.21-5.29,8.89-10.27c-0.31-4.96-4.49-9.21-8.41-11.8c-6.41-4.26-8.01-10.71-9.77-17.86
		c-1.95-7.81-3.24-15.78-4.38-23.74c-2.24-15.67-3.75-31.45-4.84-47.23c-0.24-3.35-0.56-6.74-0.56-10.1c0-5.42-0.9-18.5-0.21-18.5
		h11.8c0.93,0,1.69,0.76,1.68,1.7c-0.08,3.59,0.43,12.03,6.2,16.53c4.67,3.64,16.01,2.73,19.45-5.69c0.25-0.62,1.64-4.65,2.9-3.82
		c0.75,0.49,0.88,1.73,1.01,2.54c0.15,1.05,0.29,2.09,0.64,3.11c2.49,6.97,10.99,9.59,17.32,6.27c2.81-1.48,4.96-3.77,7.07-6.08
		c2.05-2.25,3.97-4.65,5.7-7.14c1.08-1.54,2.08-3.11,2.98-4.74c0.27-0.48,0.51-1.08,0.79-1.59c0.41-0.71,1.16-1.15,1.98-1.18
		c0.82-0.02,1.95,0,2.87,0.02c0.97,0.03,1.7,0.85,1.63,1.81c-0.36,4.59-0.75,16.83,5.2,18.49c6.76,1.87,12.25,0.51,16.38-6.13
		c0.69-1.12,2.37-1,2.91,0.2c0.21,0.44,0.42,0.96,0.65,1.57c1.09,2.87,6.92,11.68,14.26,6.11c7.32-5.56,9.77-16.29,10.71-14.66
		c0.96,1.64-0.13,11.14,7.08,13.18c3.69,1.03,7.65,1.6,11.44,0.7c4.47-1.07,7.67-4.23,10.64-7.54c1.47-1.65,2.75-3.46,4-5.27
		c1.24-1.82,2.59-3.59,3.71-5.49c0.53-0.89,1.09-1.98,1.1-3.02C909.74,501.3,909.34,500.09,909.07,498.94z M617.72,505.86
		c-0.57,1.87-1.45,3.69-2.26,5.47c-0.92,2.08-1.9,4.13-2.99,6.12c-0.44,0.8-1.18,2.77-2.12,3.14c-0.2,0.09-0.43,0.14-0.67,0.18
		c-2.05,0.25-4.53-0.9-6.54-1.34c-2.44-0.54-4.9-1-7.37-1.4c-4.94-0.77-9.93-1.23-14.93-1.38c-0.77-0.01-1.57-0.03-2.3-0.32
		c-0.73-0.29-1.36-0.9-1.46-1.68c-0.1-0.79,0.45-1.58,1.14-2c2.19-1.35,4.91-2.14,7.4-2.59c3.07-0.55,6.45-1.38,9.52-2
		c6-1.21,11.58-1.7,17.53-3.16c0.88-0.22,4.36-1.44,5.12-0.75C618.28,504.62,617.9,505.24,617.72,505.86z M665.89,414.71
		c0.36-0.73,0.7-1.44,1.07-2.16c6.6-13.53,13.33-27.06,20.3-40.42c2.42-4.85,4.51-9.54,8.01-13.74c0.8-0.96,1.8-1.95,3.05-1.92
		c1.65,0.04,2.65,1.8,3.26,3.34c5.05,12.76,7.08,26.48,8.36,40.08c1.32,13.87,2.25,27.78,3.13,41.69
		c0.83,13.16,1.54,26.34,2.08,39.54c0.16,4.03,0.32,8.09,0.44,12.13c0,0.12-0.1,0.21-0.2,0.21l-81.86,1.47
		c-0.13,0-0.24-0.12-0.19-0.25C642.34,467.31,653.29,440.6,665.89,414.71z M721.08,590.94c-7.16-6.16-44.6-37.91-71.16-51.37
		c-22.03-11.16-28.13-13.8-29.86-14.44c-0.36-0.14-0.53-0.56-0.36-0.91l9.54-20.53c0.11-0.23,0.34-0.37,0.6-0.37l43.15,0.13
		l42.46-0.33c0.34,0,0.65,0.27,0.67,0.63l6.04,86.63C722.23,590.97,721.54,591.32,721.08,590.94z M814.71,489.64
		c-0.31,0.19-0.69,0-0.76-0.36c-0.26-1.67-0.76-5.89,0.48-7.78c1.59-2.4,3.61-2.24,4.44-1.01
		C820.12,482.35,818.97,487.01,814.71,489.64z M870.61,495.7c-1.67,3.63-8.1,19.47-10.55,19.47c-1.77-0.01-2.08-1.1-2.13-2.59
		c0,0-0.54-8.26,3.26-15.52c3.8-7.23,6.01-8.64,8.2-8.96C871.55,487.8,872.29,492.09,870.61,495.7z"/>
</g>
<path d="M556.58,509.32c0,0,0,0,0,0.01c-0.05,0.01-0.09,0.03-0.14,0.06L556.58,509.32z"/>
<path d="M559.72,521.59c-0.55,0.01-2.1,0.02-4,0.03C557.06,521.59,558.39,521.58,559.72,521.59z"/>
</svg>
