<?xml version="1.0" encoding="utf-8"?>
<!-- Generator: Adobe Illustrator 26.0.3, SVG Export Plug-In . SVG Version: 6.00 Build 0)  -->
<svg version="1.1" id="Layer_1" xmlns="http://www.w3.org/2000/svg" xmlns:xlink="http://www.w3.org/1999/xlink" x="0px" y="0px"
	 viewBox="0 0 1016 1016" style="enable-background:new 0 0 1016 1016;" xml:space="preserve">
<style type="text/css">
	.st0{fill:#FFFFFF;}
</style>
<g>
	<path d="M651.07,449.33c-0.97,2.35-3.87,3.17-5.89,1.62l-43.62-33.64c-1.2-0.92-1.7-2.45-1.35-3.92c1.5-6.39,2.3-13.05,2.3-19.89
		c0-47.41-38.45-85.86-85.88-85.86c-24.35,0-46.36,10.16-61.98,26.45c-1.3-0.27-2.62-0.55-3.94-0.8c-1.3-0.25-2.59-0.47-3.92-0.7
		c-0.9-0.15-1.82-0.27-2.72-0.4c-0.8-0.12-1.6-0.22-2.42-0.32c-0.97-0.12-1.97-0.25-2.94-0.35c-1.22-0.12-2.45-0.25-3.67-0.35h-0.15
		c-1.45-0.12-2.89-0.22-4.34-0.3c-1-0.05-2.02-0.1-3.02-0.12c-0.72-0.02-1.47-0.05-2.2-0.07c-1.02-0.02-2.05-0.02-3.07-0.02
		c-1.37,0-2.72,0.02-4.07,0.07c-0.62,0-1.22,0.02-1.82,0.05c-1,0.02-2,0.07-2.97,0.15c-0.57,0-1.17,0.05-1.75,0.1
		c-0.87,0.05-1.75,0.12-2.59,0.2c-0.65,0.05-1.3,0.1-1.92,0.17c-1.37,0.12-2.72,0.27-4.04,0.45c-1.4,0.17-2.77,0.35-4.14,0.57
		c-1.5,0.22-2.97,0.47-4.42,0.75c-0.67,0.12-1.32,0.22-1.95,0.37c-1.02,0.2-2.05,0.4-3.04,0.62c-0.17,0.02-0.32,0.05-0.47,0.1
		c-1.47,0.32-2.94,0.67-4.42,1.05c23.35-52.67,77.2-88.83,139.18-86.06c74.86,3.37,135.41,64.55,138.08,139.43
		C662.67,410.23,658.76,430.77,651.07,449.33z"/>
	<path d="M479.9,469.09v64.9c-16.14-4.27-31.16-11.25-44.56-20.46c-35.26-24.15-59.29-63.5-62.63-108.64v-0.02
		c1.97-1.25,4.02-2.45,6.11-3.52c0.72-0.4,1.47-0.77,2.25-1.15c0.95-0.47,1.9-0.92,2.87-1.37c0,0,0,0,0.02,0
		c0.97-0.45,1.95-0.87,2.94-1.27c0.97-0.4,2-0.8,2.99-1.17c0.12-0.05,0.22-0.1,0.32-0.12c0.9-0.32,1.8-0.65,2.72-0.95
		c2.07-0.7,4.19-1.32,6.34-1.85c1.02-0.27,2.05-0.5,3.09-0.72c2.12-0.47,4.29-0.87,6.49-1.17c1.1-0.17,2.2-0.3,3.32-0.42
		c0.97-0.12,1.95-0.2,2.92-0.27c0.95-0.07,1.92-0.12,2.89-0.17c0.47-0.02,0.97-0.05,1.47-0.05c0.92-0.02,1.85-0.05,2.79-0.05h0.02
		c1.02,0,2.02,0.02,3.04,0.05c0.42,0.02,0.82,0.02,1.25,0.05c0.17,0,0.35,0.02,0.52,0.02c1.1,0.05,2.17,0.12,3.24,0.22
		c-0.15,7.69,0.77,25.9,11.05,43.94c0.27,0.52,0.57,1.02,0.9,1.55c0.52,0.9,1.1,1.72,1.65,2.59
		C451.31,450.33,462.61,461.21,479.9,469.09z"/>
	<path d="M668.06,625.02c-1.92,76.65-66.02,138.48-142.67,137.78c-73.73-0.67-134.02-57.81-139.63-130.3
		c1.1,0.27,2.2,0.52,3.32,0.77c0.67,0.15,1.35,0.3,2.05,0.45c1.17,0.25,2.35,0.47,3.52,0.67c1.47,0.27,2.99,0.52,4.49,0.75
		c1.5,0.22,3.02,0.45,4.52,0.62c1.05,0.12,2.12,0.25,3.19,0.35c0.07,0,0.15,0.02,0.22,0.02c0.97,0.1,1.95,0.17,2.92,0.25
		c0.37,0.05,0.77,0.07,1.17,0.1c0.9,0.07,1.77,0.12,2.67,0.17c1.3,0.07,2.59,0.12,3.89,0.15c1.5,0.05,3.02,0.07,4.54,0.07
		c1.27,0,2.55-0.02,3.82-0.05c0.9-0.02,1.77-0.05,2.64-0.07c0.72-0.05,1.45-0.07,2.15-0.12c0.95-0.05,1.9-0.1,2.84-0.17
		c0.62-0.02,1.22-0.07,1.85-0.15c0.62-0.05,1.22-0.12,1.85-0.17c1.3-0.12,2.6-0.25,3.89-0.42c0.92-0.1,1.85-0.22,2.74-0.37
		c0.3-0.02,0.6-0.07,0.9-0.12c7.71,38.93,42.57,68.12,84.04,67c59.78-1.62,99.48-68.09,71.09-120.97
		c-10.85-20.19-29.89-36.13-52.42-41.22c-4.19-0.97-8.48-1.52-12.8-1.65v-58.11c41.3,2.52,81.09,23.95,105.7,57.26
		C659.13,562.71,668.84,593.75,668.06,625.02z"/>
	<path d="M534.77,399.6v-18.3c0-0.87-0.33-1.72-0.93-2.36c-14.95-15.93-33.29-28.65-53.87-37.03c-8.11-3.32-16.57-5.94-25.33-7.81
		c-1.3-0.27-2.62-0.55-3.94-0.8c-1.3-0.25-2.59-0.47-3.92-0.7c-0.9-0.15-1.82-0.27-2.72-0.4c-16.38-2.27-33.26-2.11-49.53,0.97
		c-0.65,0.1-1.3,0.22-1.95,0.37c-1.02,0.2-2.05,0.4-3.04,0.62c-0.17,0.02-0.32,0.05-0.47,0.1c-1.47,0.32-2.94,0.67-4.42,1.05
		c-66.4,16.77-115.5,76.88-115.5,148.46c0,71.99,49.65,132.34,116.6,148.71c1.1,0.27,2.2,0.52,3.32,0.77
		c0.67,0.15,1.35,0.3,2.05,0.45c1.17,0.25,2.35,0.47,3.52,0.67c1.47,0.27,2.99,0.52,4.49,0.75c1.5,0.22,3.02,0.45,4.52,0.62
		c1.05,0.12,2.12,0.25,3.19,0.35c0.07,0,0.15,0.02,0.22,0.02c0.97,0.1,1.95,0.17,2.92,0.25c0.37,0.05,0.77,0.07,1.17,0.1
		c0.9,0.07,1.77,0.12,2.67,0.17c1.3,0.07,2.59,0.12,3.89,0.15c1.5,0.05,3.02,0.07,4.54,0.07c1.27,0,2.55-0.02,3.82-0.05
		c0.9-0.02,1.77-0.05,2.64-0.07c0.72-0.05,1.45-0.07,2.15-0.12c0.95-0.05,1.9-0.1,2.84-0.17c0.62-0.02,1.22-0.07,1.85-0.15
		c0.62-0.05,1.22-0.12,1.85-0.17c1.3-0.12,2.6-0.25,3.89-0.42c0.92-0.1,1.85-0.22,2.74-0.37c0.3-0.02,0.6-0.07,0.9-0.12
		c12.2-1.8,23.95-5.07,35.03-9.58c20.58-8.36,38.91-21.08,53.87-37.01c0.6-0.64,0.93-1.48,0.93-2.36v-6.35h0.07V399.6H534.77z
		 M478.77,557.87c-15.68,11.97-35.27,19.09-56.51,19.09c-50.62,0-91.41-39.35-93.12-89.94c-1.17-34.6,16.52-65.13,43.56-82.15
		c1.97-1.25,4.02-2.45,6.11-3.52c0.75-0.4,1.5-0.8,2.25-1.15c0.95-0.47,1.9-0.95,2.87-1.37c0,0,0,0,0.02,0
		c0.97-0.45,1.95-0.87,2.94-1.27c1-0.42,2-0.82,2.99-1.17c0.12-0.05,0.22-0.1,0.32-0.12c0.9-0.32,1.8-0.65,2.72-0.95
		c2.07-0.7,4.19-1.32,6.34-1.85c1.02-0.27,2.05-0.52,3.09-0.72c2.12-0.47,4.29-0.87,6.49-1.17c1.1-0.17,2.2-0.32,3.32-0.42
		c0.97-0.12,1.95-0.2,2.92-0.27c0.95-0.07,1.92-0.12,2.89-0.17c0.47-0.02,0.97-0.05,1.47-0.05c0.92-0.02,1.85-0.05,2.79-0.05h0.02
		c1.02,0,2.02,0.02,3.04,0.05c0.42,0.02,0.82,0.02,1.25,0.05c0.17,0,0.35,0.02,0.52,0.02c1.1,0.05,2.17,0.12,3.24,0.22
		c0.17,0,0.32,0.02,0.47,0.05c17.94,1.63,34.39,8.33,47.95,18.69c0.71,0.54,1.13,1.4,1.13,2.3v143.59
		C479.9,556.47,479.49,557.33,478.77,557.87z"/>
	<path d="M202.2,471.16h-43.56c-2.36,0-4.21-2.05-3.95-4.39c18.42-164.22,148.71-294.6,312.92-313.15c2.34-0.26,4.4,1.59,4.4,3.95
		v43.56c0,1.99-1.48,3.64-3.45,3.9C331.88,222.7,223.65,331.01,206.09,467.71C205.84,469.68,204.18,471.16,202.2,471.16z"/>
	<path d="M813.75,542.85h43.59c2.36,0,4.21,2.05,3.95,4.39c-20.03,177.37-170.56,315.21-353.3,315.21
		c-182.76,0-333.27-137.85-353.3-315.21c-0.26-2.34,1.59-4.39,3.95-4.39h43.59c1.99,0,3.65,1.48,3.9,3.45
		c19.3,149.51,147.11,265.01,301.87,265.01S790.55,695.81,809.85,546.3C810.11,544.33,811.77,542.85,813.75,542.85z"/>
	<path d="M543.69,201.1v-43.59c0-2.36,2.05-4.21,4.39-3.95c164.32,18.45,294.78,148.88,313.23,313.2c0.26,2.34-1.59,4.39-3.95,4.39
		h-43.59c-1.99,0-3.64-1.48-3.9-3.45C792.33,330.91,683.92,222.55,547.15,205C545.18,204.75,543.69,203.09,543.69,201.1z"/>
</g>
</svg>
